<svg width="36" height="35" viewBox="0 0 36 35" fill="none" xmlns="http://www.w3.org/2000/svg">
<path d="M2.95898 23.7915C2.4067 23.7915 1.95898 24.2392 1.95898 24.7915C1.95898 25.3438 2.4067 25.7915 2.95898 25.7915V23.7915ZM7.3987 13.1248L6.3987 13.1248V13.1248H7.3987ZM28.1174 13.1248L29.1174 13.1248V13.1248L28.1174 13.1248ZM20.3183 30.6248L21.1801 31.1321C21.3621 30.823 21.3645 30.44 21.1864 30.1285C21.0083 29.817 20.6771 29.6248 20.3183 29.6248V30.6248ZM15.1978 30.6248V29.6248C14.839 29.6248 14.5078 29.817 14.3297 30.1285C14.1516 30.44 14.154 30.823 14.336 31.1321L15.1978 30.6248ZM32.5571 23.7915H2.95898V25.7915H32.5571V23.7915ZM2.95898 25.7915C5.94936 25.7915 8.3987 23.3988 8.3987 20.4165H6.3987C6.3987 22.2667 4.87258 23.7915 2.95898 23.7915V25.7915ZM8.3987 20.4165V13.1248H6.3987V20.4165H8.3987ZM8.3987 13.1248C8.3987 8.05301 12.5751 3.9165 17.758 3.9165V1.9165C11.4983 1.9165 6.3987 6.92085 6.3987 13.1248L8.3987 13.1248ZM17.758 3.9165C22.941 3.9165 27.1174 8.05301 27.1174 13.1248L29.1174 13.1248C29.1174 6.92085 24.0177 1.9165 17.758 1.9165V3.9165ZM27.1174 13.1248V20.4165H29.1174V13.1248H27.1174ZM27.1174 20.4165C27.1174 23.3988 29.5667 25.7915 32.5571 25.7915V23.7915C30.6435 23.7915 29.1174 22.2667 29.1174 20.4165H27.1174ZM19.4565 30.1175C19.1091 30.7076 18.4639 31.078 17.758 31.078V33.078C19.1628 33.078 20.4684 32.3411 21.1801 31.1321L19.4565 30.1175ZM17.758 31.078C17.0522 31.078 16.4069 30.7076 16.0596 30.1175L14.336 31.1321C15.0477 32.3411 16.3533 33.078 17.758 33.078V31.078ZM15.1978 31.6248H20.3183V29.6248H15.1978V31.6248Z" fill="#626262"/>
</svg>
