<svg width="32" height="33" viewBox="0 0 32 33" fill="none" xmlns="http://www.w3.org/2000/svg">
<path d="M1.95996 22.7915C1.40768 22.7915 0.959961 23.2392 0.959961 23.7915C0.959961 24.3438 1.40768 24.7915 1.95996 24.7915V22.7915ZM6.39968 12.1248L5.39968 12.1248V12.1248H6.39968ZM27.1184 12.1248L28.1184 12.1248V12.1248L27.1184 12.1248ZM19.3193 29.6248L20.181 30.1321C20.363 29.823 20.3655 29.44 20.1874 29.1285C20.0093 28.817 19.678 28.6248 19.3193 28.6248V29.6248ZM14.1988 29.6248V28.6248C13.84 28.6248 13.5087 28.817 13.3307 29.1285C13.1526 29.44 13.155 29.823 13.337 30.1321L14.1988 29.6248ZM31.5581 22.7915H1.95996V24.7915H31.5581V22.7915ZM1.95996 24.7915C4.95034 24.7915 7.39968 22.3988 7.39968 19.4165H5.39968C5.39968 21.2667 3.87356 22.7915 1.95996 22.7915V24.7915ZM7.39968 19.4165V12.1248H5.39968V19.4165H7.39968ZM7.39968 12.1248C7.39968 7.05301 11.5761 2.9165 16.759 2.9165V0.916504C10.4993 0.916504 5.39968 5.92085 5.39968 12.1248L7.39968 12.1248ZM16.759 2.9165C21.9419 2.9165 26.1184 7.05301 26.1184 12.1248L28.1184 12.1248C28.1184 5.92085 23.0187 0.916504 16.759 0.916504V2.9165ZM26.1184 12.1248V19.4165H28.1184V12.1248H26.1184ZM26.1184 19.4165C26.1184 22.3988 28.5677 24.7915 31.5581 24.7915V22.7915C29.6445 22.7915 28.1184 21.2667 28.1184 19.4165H26.1184ZM18.4575 29.1175C18.1101 29.7076 17.4649 30.078 16.759 30.078V32.078C18.1637 32.078 19.4694 31.3411 20.181 30.1321L18.4575 29.1175ZM16.759 30.078C16.0532 30.078 15.4079 29.7076 15.0606 29.1175L13.337 30.1321C14.0487 31.3411 15.3543 32.078 16.759 32.078V30.078ZM14.1988 30.6248H19.3193V28.6248H14.1988V30.6248Z" fill="white"/>
</svg>
