<svg width="35" height="35" viewBox="0 0 35 35" fill="none" xmlns="http://www.w3.org/2000/svg">
<path fill-rule="evenodd" clip-rule="evenodd" d="M30.6246 24.675V29.05C30.6279 29.8712 30.2849 30.6558 29.6797 31.211C29.0746 31.7662 28.2634 32.0406 27.4454 31.9666C22.9579 31.479 18.6473 29.9456 14.86 27.4896C11.3364 25.2505 8.34906 22.2631 6.11002 18.7396C3.64541 14.9351 2.11163 10.6035 1.63294 6.09581C1.55926 5.28042 1.83167 4.4716 2.38364 3.86693C2.93561 3.26226 3.71631 2.91742 4.53502 2.91665H8.91002C10.374 2.90224 11.6218 3.97535 11.8267 5.42498C12.0113 6.82508 12.3538 8.19979 12.8475 9.5229C13.2482 10.5888 12.9919 11.7903 12.1913 12.6L10.3392 14.4521C12.4152 18.1031 15.4382 21.126 19.0892 23.2021L20.9413 21.35C21.7509 20.5493 22.9525 20.2931 24.0184 20.6937C25.3415 21.1875 26.7162 21.5299 28.1163 21.7146C29.5827 21.9214 30.6613 23.1945 30.6246 24.675Z" stroke="black" stroke-width="2" stroke-linecap="round" stroke-linejoin="round"/>
</svg>
