<svg width="35" height="35" viewBox="0 0 35 35" fill="none" xmlns="http://www.w3.org/2000/svg">
<path fill-rule="evenodd" clip-rule="evenodd" d="M17.5 21.875C19.9162 21.875 21.875 19.9162 21.875 17.5C21.875 15.0838 19.9162 13.125 17.5 13.125C15.0838 13.125 13.125 15.0838 13.125 17.5C13.125 19.9162 15.0838 21.875 17.5 21.875Z" stroke="white" stroke-width="2" stroke-linecap="round" stroke-linejoin="round"/>
<path fill-rule="evenodd" clip-rule="evenodd" d="M28.2913 21.8752C27.8942 22.7751 28.0847 23.8261 28.7726 24.5293L28.8601 24.6168C29.4078 25.1639 29.7155 25.9063 29.7155 26.6804C29.7155 27.4545 29.4078 28.1968 28.8601 28.7439C28.313 29.2916 27.5707 29.5993 26.7966 29.5993C26.0224 29.5993 25.2801 29.2916 24.733 28.7439L24.6455 28.6564C23.9423 27.9686 22.8913 27.778 21.9913 28.1752C21.1098 28.553 20.5368 29.4182 20.533 30.3772V30.6252C20.533 32.236 19.2272 33.5418 17.6163 33.5418C16.0055 33.5418 14.6997 32.236 14.6997 30.6252V30.4939C14.6766 29.5061 14.052 28.6329 13.1247 28.2918C12.2248 27.8947 11.1737 28.0852 10.4705 28.7731L10.383 28.8606C9.83593 29.4083 9.09358 29.716 8.31947 29.716C7.54536 29.716 6.803 29.4083 6.25592 28.8606C5.70824 28.3135 5.40051 27.5712 5.40051 26.797C5.40051 26.0229 5.70824 25.2806 6.25592 24.7335L6.34342 24.646C7.03127 23.9428 7.22185 22.8918 6.82468 21.9918C6.44687 21.1103 5.58165 20.5373 4.62259 20.5335H4.37467C2.76384 20.5335 1.45801 19.2277 1.45801 17.6168C1.45801 16.006 2.76384 14.7002 4.37467 14.7002H4.50592C5.4937 14.6771 6.36695 14.0525 6.70801 13.1252C7.10518 12.2252 6.9146 11.1742 6.22676 10.471L6.13926 10.3835C5.59158 9.83642 5.28384 9.09407 5.28384 8.31996C5.28384 7.54584 5.59158 6.80349 6.13926 6.25641C6.68633 5.70873 7.42869 5.40099 8.2028 5.40099C8.97691 5.40099 9.71927 5.70873 10.2663 6.25641L10.3538 6.34391C11.057 7.03176 12.1081 7.22234 13.008 6.82516H13.1247C14.0062 6.44736 14.5792 5.58214 14.583 4.62308V4.37516C14.583 2.76433 15.8888 1.4585 17.4997 1.4585C19.1105 1.4585 20.4163 2.76433 20.4163 4.37516V4.50641C20.4202 5.46548 20.9932 6.33069 21.8747 6.7085C22.7746 7.10567 23.8257 6.91509 24.5288 6.22725L24.6163 6.13975C25.1634 5.59206 25.9058 5.28433 26.6799 5.28433C27.454 5.28433 28.1964 5.59206 28.7434 6.13975C29.2911 6.68682 29.5988 7.42918 29.5988 8.20329C29.5988 8.9774 29.2911 9.71976 28.7434 10.2668L28.6559 10.3543C27.9681 11.0575 27.7775 12.1086 28.1747 13.0085V13.1252C28.5525 14.0067 29.4177 14.5797 30.3768 14.5835H30.6247C32.2355 14.5835 33.5413 15.8893 33.5413 17.5002C33.5413 19.111 32.2355 20.4168 30.6247 20.4168H30.4934C29.5344 20.4207 28.6692 20.9936 28.2913 21.8752Z" stroke="white" stroke-width="2" stroke-linecap="round" stroke-linejoin="round"/>
</svg>
