<svg width="35" height="35" viewBox="0 0 35 35" fill="none" xmlns="http://www.w3.org/2000/svg">
<path d="M4.375 8.75H7.29167H30.625" stroke="white" stroke-width="2" stroke-linecap="round" stroke-linejoin="round"/>
<path d="M28.7077 8.74984C28.7077 8.19755 28.26 7.74984 27.7077 7.74984C27.1554 7.74984 26.7077 8.19755 26.7077 8.74984H28.7077ZM8.29102 8.74984C8.29102 8.19755 7.8433 7.74984 7.29102 7.74984C6.73873 7.74984 6.29102 8.19755 6.29102 8.74984H8.29102ZM10.666 8.74984C10.666 9.30212 11.1137 9.74984 11.666 9.74984C12.2183 9.74984 12.666 9.30212 12.666 8.74984H10.666ZM22.3327 8.74984C22.3327 9.30212 22.7804 9.74984 23.3327 9.74984C23.885 9.74984 24.3327 9.30212 24.3327 8.74984H22.3327ZM26.7077 8.74984V29.1665H28.7077V8.74984H26.7077ZM26.7077 29.1665C26.7077 30.225 25.8496 31.0832 24.791 31.0832V33.0832C26.9541 33.0832 28.7077 31.3296 28.7077 29.1665H26.7077ZM24.791 31.0832H10.2077V33.0832H24.791V31.0832ZM10.2077 31.0832C9.14914 31.0832 8.29102 30.225 8.29102 29.1665H6.29102C6.29102 31.3296 8.04457 33.0832 10.2077 33.0832V31.0832ZM8.29102 29.1665V8.74984H6.29102V29.1665H8.29102ZM12.666 8.74984V5.83317H10.666V8.74984H12.666ZM12.666 5.83317C12.666 4.77462 13.5241 3.9165 14.5827 3.9165V1.9165C12.4196 1.9165 10.666 3.67006 10.666 5.83317H12.666ZM14.5827 3.9165H20.416V1.9165H14.5827V3.9165ZM20.416 3.9165C21.4746 3.9165 22.3327 4.77462 22.3327 5.83317H24.3327C24.3327 3.67006 22.5791 1.9165 20.416 1.9165V3.9165ZM22.3327 5.83317V8.74984H24.3327V5.83317H22.3327Z" fill="white"/>
<path d="M14.584 16.0415V24.7915" stroke="white" stroke-width="2" stroke-linecap="round" stroke-linejoin="round"/>
<path d="M20.416 16.0415V24.7915" stroke="white" stroke-width="2" stroke-linecap="round" stroke-linejoin="round"/>
</svg>
