<svg width="35" height="35" viewBox="0 0 35 35" fill="none" xmlns="http://www.w3.org/2000/svg">
<rect width="35" height="35" fill=""/>
<g clip-path="url(#clip0_0_1)">
<rect width="375" height="812" transform="translate(-16 -401)"/>
<path d="M24.7913 30.625V27.7083C24.7913 24.4867 22.1797 21.875 18.958 21.875H7.29134C4.06968 21.875 1.45801 24.4867 1.45801 27.7083V30.625" stroke="#626262" stroke-width="2" stroke-linecap="round" stroke-linejoin="round"/>
<path fill-rule="evenodd" clip-rule="evenodd" d="M13.1253 16.0417C16.347 16.0417 18.9587 13.43 18.9587 10.2083C18.9587 6.98667 16.347 4.375 13.1253 4.375C9.90366 4.375 7.29199 6.98667 7.29199 10.2083C7.29199 13.43 9.90366 16.0417 13.1253 16.0417Z" stroke="#626262" stroke-width="2" stroke-linecap="round" stroke-linejoin="round"/>
<path d="M33.542 30.6249V27.7082C33.54 25.0498 31.7409 22.729 29.167 22.0645" stroke="#626262" stroke-width="2" stroke-linecap="round" stroke-linejoin="round"/>
<path d="M23.333 4.56445C25.9141 5.22533 27.7194 7.55111 27.7194 10.2155C27.7194 12.8799 25.9141 15.2057 23.333 15.8665" stroke="#626262" stroke-width="2" stroke-linecap="round" stroke-linejoin="round"/>
</g>
<defs>
<clipPath id="clip0_0_1">
<rect width="375" height="812" fill="white" transform="translate(-16 -401)"/>
</clipPath>
</defs>
</svg>
