<svg width="35" height="35" viewBox="0 0 35 35" fill="none" xmlns="http://www.w3.org/2000/svg">
<path fill-rule="evenodd" clip-rule="evenodd" d="M16.041 7.2915L8.74935 13.1248H2.91602V21.8748H8.74935L16.041 27.7082V7.2915V7.2915Z" stroke="#626262" stroke-width="2" stroke-linecap="round" stroke-linejoin="round"/>
<path d="M28.5172 6.48245C28.1268 6.09187 27.4936 6.09177 27.103 6.48224C26.7124 6.8727 26.7123 7.50587 27.1028 7.89645L28.5172 6.48245ZM27.1028 27.1033C26.7123 27.4939 26.7124 28.127 27.103 28.5175C27.4936 28.908 28.1268 28.9079 28.5172 28.5173L27.1028 27.1033ZM23.3693 11.6304C22.9789 11.2398 22.3457 11.2397 21.9551 11.6302C21.5645 12.0206 21.5644 12.6538 21.9549 13.0444L23.3693 11.6304ZM21.9549 21.9408C21.5644 22.3314 21.5645 22.9645 21.9551 23.355C22.3457 23.7455 22.9789 23.7454 23.3693 23.3548L21.9549 21.9408ZM27.1028 7.89645C32.4055 13.2007 32.4055 21.799 27.1028 27.1033L28.5172 28.5173C34.6007 22.432 34.6007 12.5677 28.5172 6.48245L27.1028 7.89645ZM21.9549 13.0444C24.411 15.5013 24.411 19.4839 21.9549 21.9408L23.3693 23.3548C26.6062 20.1169 26.6062 14.8683 23.3693 11.6304L21.9549 13.0444Z" fill="#626262"/>
</svg>
